<svg width="202" height="173" viewBox="0 0 202 173" fill="none" xmlns="http://www.w3.org/2000/svg">
<path d="M109.6 4.20078C110.3 3.10078 112.4 1.60078 114.3 0.900778C116.2 0.200778 119.1 -0.199222 120.7 0.100778C122.3 0.400778 124.9 1.90078 126.4 3.60078C128 5.20078 129.7 8.50078 130.3 10.8008C130.9 13.2008 131.1 17.1008 130.7 19.6008C130.3 22.1008 129.2 25.7008 128.2 27.6008C127.3 29.5008 125.1 32.3008 123.3 33.8008C121.6 35.4008 119 36.9008 117.4 37.2008C115.6 37.6674 113.567 37.2674 111.3 36.0008C109.4 35.0008 107 32.5008 106 30.6008C104.9 28.5008 104.1 24.9008 104.1 21.6008C104 18.0008 104.7 14.4008 106.2 11.1008C107.3 8.30078 108.9 5.20078 109.6 4.20078Z" fill="#0477C6"/>
<path d="M72.5 6.80078C73.5 5.10078 75.2 2.90078 76.4 2.00078C78 0.900778 80 0.600778 83.2 1.00078C86.3 1.30078 88.6 2.40078 90.6 4.30078C92.2 5.80078 94.3 9.00078 95.3 11.3008C96.4 13.7008 97.3 18.2008 97.3 21.3008C97.4 24.7008 96.8 28.5008 95.8 30.6008C95 32.5008 92.8 34.9008 91 36.0008C88.7 37.3008 86.7 37.7008 84.4 37.2008C82.7 36.9008 79.8 35.1008 78 33.3008C76.3 31.6008 74 28.1008 72.9 25.6008C71.8 23.0008 70.9 18.8008 70.9 15.6008C70.9 12.4008 71.6 8.70078 72.5 6.80078Z" fill="#0477C6"/>
<path d="M128.5 40.3008C130.5 36.0008 132.2 34.0008 135.4 32.1008C137.8 30.7008 140.7 29.6008 141.9 29.6008C143.2 29.6008 145.2 30.1008 146.4 30.6008C147.7 31.2008 149.5 33.0008 150.4 34.6008C151.5 36.5008 152.2 39.6008 152.2 42.8008C152.2 45.7008 151.3 49.9008 150.3 52.1008C149.3 54.3008 146.9 57.6008 144.9 59.3008C142.7 61.3008 139.7 62.8008 137.4 63.2008C134.9 63.6008 133 63.2008 131.4 62.2008C130.2 61.3008 128.4 59.4008 127.5 57.8008C126.5 56.3008 125.8 53.2008 125.8 50.6008C125.8 47.8008 126.8 43.9008 128.5 40.3008Z" fill="#0477C6"/>
<path d="M50.7 41.7008C51.2 38.0008 52.2 35.5008 53.9 33.9008C55.3 32.6008 57.5 31.6008 59.3 31.6008C60.9 31.6008 63.4 32.2008 64.9 33.0008C66.5 33.8008 68.9 35.7008 70.3 37.3008C71.8 38.8008 73.7 41.6008 74.6 43.3008C75.5 45.3008 76.2 49.1008 76.2 52.6008C76.2 57.4008 75.7 59.1008 73.9 61.3008C72.6 62.9008 70.4 64.4008 69.1 64.7008C67.7 65.1008 65 64.6008 62.7 63.6008C60.5 62.7008 57.3 60.4008 55.6 58.5008C54 56.6008 52 53.3008 51.3 51.1008C50.4 48.4008 50.2 45.4008 50.7 41.7008Z" fill="#0477C6"/>
<path d="M81.5 61.1008C83.3 58.9008 87.3 55.9008 90.3 54.3008C94.5 52.2008 97.1 51.6008 101.9 51.6008C106.2 51.6008 109.5 52.2008 112.2 53.6008C114.4 54.7008 118.1 57.5008 120.5 59.8008C122.8 62.2008 126.6 66.8008 128.9 70.1008C131.1 73.4008 133.9 78.5008 135.1 81.3008C136.3 84.2008 137.2 88.0008 137.2 89.6008C137.2 91.3008 136.2 93.7008 134.9 95.2008C133.5 96.8008 131.3 97.9008 128.7 98.3008C125.7 98.7008 123 98.1008 118.2 96.1008C114.6 94.7008 109.2 93.2008 106.2 92.9008C101.8 92.5008 98.8 93.0008 90.7 95.5008C83.9 97.7008 79.6 98.6008 77.4 98.2008C75.5 97.8008 73.2 96.4008 71.7 94.6008C70.3 92.9008 69.2 90.3008 69.2 88.6008C69.2 87.0008 70.1 83.0008 71.1 79.8008C72.2 76.7008 74.2 72.1008 75.6 69.6008C77 67.1008 79.6 63.3008 81.5 61.1008Z" fill="#0477C6"/>
<path d="M0 120.501L6.4 117.601C10.7 115.501 14.3 114.601 17.7 114.601C20.9 114.601 23.8 115.301 25.9 116.601C27.7 117.701 30.1 120.101 31.3 121.801C32.9 124.401 33.2 126.401 33 131.301C32.8 136.201 32.1 138.301 29.7 141.701C28 144.001 25.6 146.801 24.2 147.801C22.8 148.801 19.9 150.301 13.7 152.401L12.7 159.801C12.1 163.801 11.1 168.101 10.4 169.301C9.6 170.901 8.3 171.601 6.2 171.601C3.7 171.601 2.9 171.001 1.7 168.101C0.5 165.401 0.2 159.801 0 120.501Z" fill="#0477C6"/>
<path d="M78.6 122.301C78.9 120.301 80.1 117.701 81.2 116.601C82.3 115.501 83.9 114.601 84.7 114.601C85.5 114.601 86.9 115.601 87.8 116.801C88.8 118.301 89.2 120.801 89 123.801C88.7 128.201 88.9 128.601 90.9 128.601C92.2 128.601 94.3 129.201 95.7 129.801C97.1 130.501 98.3 131.801 98.3 132.601C98.3 133.401 97.5 134.901 96.5 135.801C95.5 136.701 93.2 137.901 91.4 138.301C89.2 138.801 87.9 139.801 87.7 141.101C87.5 142.201 87 146.001 86.7 149.601C86.3 153.401 86.5 157.301 87.1 158.801C88.1 161.301 88.7 161.601 92.7 161.601C96.4 161.601 97.4 162.001 98.3 163.801C99.1 165.501 99.1 166.701 98.3 168.301C97.6 169.801 95.7 171.001 92.9 171.701C90.6 172.301 87.6 172.501 86.2 172.101C84.8 171.801 82.4 171.001 80.9 170.301C79.4 169.601 77.4 167.601 76.6 165.801C75.6 163.501 75.2 159.201 75.5 139.101L72.3 138.801C70.4 138.701 68.8 137.901 68.2 136.601C67.4 135.101 67.6 134.101 68.9 132.501C69.9 131.401 72.3 130.101 74.2 129.701C76.1 129.301 77.8 128.401 77.9 127.601C78 126.801 78.3 124.401 78.6 122.301Z" fill="#0477C6"/>
<path d="M42.9 130.501C44.4 129.001 46.6 127.401 47.7 126.801C48.8 126.201 50.9 125.601 52.4 125.601C54 125.601 56.8 126.401 58.8 127.301C60.8 128.301 63.1 130.301 63.8 131.801C64.6 133.401 65.2 136.101 65.2 137.801C65.2 139.601 64 143.001 62.7 145.301C61 148.201 58.8 150.201 55.9 151.601C53.6 152.701 50.9 153.601 49.9 153.601C49 153.601 48.2 153.901 48.2 154.301C48.2 154.801 48.7 155.701 49.4 156.401C50.1 157.101 51.8 157.601 53.2 157.601C54.6 157.601 57 156.701 58.7 155.601C60.3 154.501 62.6 153.601 63.7 153.601C64.8 153.501 66.3 154.201 66.9 155.101C68 156.301 67.9 157.301 66.4 160.301C65.4 162.501 62.9 165.201 60.2 166.901C56.6 169.201 54.8 169.701 51 169.401C47.3 169.201 45.6 168.401 42.8 165.601C40.8 163.701 38.5 160.101 37.7 157.601C36.9 155.101 36.2 151.001 36.2 148.301C36.2 145.701 37.1 141.201 38.2 138.301C39.2 135.501 41.4 131.901 42.9 130.501Z" fill="#0477C6"/>
<path d="M104.1 137.101C105.9 133.401 108.2 130.301 110.3 128.901C112.4 127.501 115.3 126.601 117.7 126.601C120 126.601 122.8 127.301 124.1 128.301C125.5 129.301 127.2 131.601 127.9 133.301C128.6 135.101 129.2 138.101 129.2 139.801C129.2 141.601 128.4 143.901 127.4 144.901C126.5 145.901 124.7 146.701 123.4 146.601C122.2 146.601 120.8 145.701 120.2 144.601C119.6 143.501 119.2 141.701 119.2 140.601C119.2 139.267 118.6 138.667 117.4 138.801C116.5 139.001 114.8 140.901 113.7 143.101C112.6 145.401 111.8 149.201 111.7 152.201C111.7 155.301 112.3 157.901 113.2 159.001C114 159.901 115.3 160.701 115.9 160.601C116.6 160.601 118.6 159.501 120.2 158.101C121.8 156.701 124.2 155.701 125.4 155.801C127.2 156.001 127.8 156.801 127.9 159.301C128.1 161.201 127.4 163.801 126.4 165.301C125.3 166.901 122.5 168.901 120.1 169.901C117.3 171.101 114.5 171.501 112.4 171.201C110.7 170.901 108 169.301 106.4 167.801C104.9 166.201 103.1 163.001 102.4 160.501C101.6 158.101 101 153.201 101.1 149.601C101.1 144.601 101.8 141.801 104.1 137.101Z" fill="#0477C6"/>
<path d="M170.1 147.101C170 133.701 170.3 130.701 171.7 128.801C172.6 127.601 174.2 126.601 175.2 126.601C176.4 126.601 178 127.901 180.7 132.501L182.7 130.501C183.9 129.301 186.6 128.301 189.2 127.901C192.8 127.501 194.3 127.801 196.4 129.501C198.5 131.101 199.5 133.101 200.4 137.301C201.3 141.801 201.3 144.901 200.4 151.101C199.8 155.501 198.6 161.101 197.7 163.601C196.9 166.101 195.5 168.901 194.5 169.901C193.5 170.901 191.8 171.601 190.8 171.401C189.7 171.201 188.4 169.801 187.9 168.101C187.2 166.101 187.2 161.801 188 154.601C188.6 148.801 188.9 143.101 188.7 141.801C188.4 140.601 187.5 139.601 186.7 139.601C185.9 139.601 184.4 140.801 183.4 142.301C182.2 144.301 181.6 147.901 181.2 155.801C180.8 164.701 180.4 166.901 178.7 168.701C177.3 170.101 176 170.601 174.4 170.201C173 169.801 171.8 168.401 171.2 166.301C170.6 164.601 170.1 155.901 170.1 147.101Z" fill="#0477C6"/>
<path d="M139 133.101C139.9 132.001 141.8 130.301 143.2 129.301C144.6 128.401 147.4 127.601 149.4 127.601C151.5 127.601 154.6 128.301 156.2 129.101C158.2 130.101 160.1 132.401 161.7 135.801C163.7 139.901 164.2 142.701 164.2 148.101C164.2 152.001 163.5 157.101 162.7 159.601C161.8 162.101 160.3 165.001 159.4 166.101C158.5 167.201 156.6 168.901 155.2 169.901C153.8 170.801 151.1 171.601 149.2 171.601C147.3 171.601 144.2 170.701 142.4 169.601C140.4 168.401 138.2 165.601 136.7 162.301C134.9 158.501 134.2 155.401 134.2 150.601C134.2 147.001 134.9 142.101 135.7 139.601C136.6 137.101 138.1 134.201 139 133.101Z" fill="#0477C6"/>
<path d="M13 134.801C12.8 131.801 13.1 130.201 14.2 129.601C15 129.101 16.4 128.601 17.2 128.601C18 128.501 19.2 129.201 19.8 130.001C20.4 130.801 20.7 132.401 20.5 133.601C20.4 134.701 18.9 136.501 17.2 137.601C15.5 138.701 14 139.501 13.8 139.301C13.6 139.201 13.2 137.201 13 134.801Z" fill="white"/>
<path d="M48.2 141.601C48.2 140.501 49.1 138.701 50.2 137.601C51.3 136.501 52.9 135.601 53.7 135.601C54.5 135.601 55.4 136.301 55.7 137.101C56 137.901 56 139.201 55.7 139.801C55.5 140.501 54.1 141.701 52.7 142.301C51.3 143.001 49.8 143.601 49.2 143.601C48.6 143.601 48.2 142.701 48.2 141.601Z" fill="white"/>
<path d="M145.4 149.601C145.5 147.401 146.1 144.001 146.8 142.101C147.5 140.201 148.6 138.601 149.2 138.601C149.7 138.601 150.9 139.601 151.7 140.801C152.5 142.101 153.4 145.101 153.8 147.601C154.1 150.301 153.8 153.701 153 156.101C152.2 158.501 151 160.201 150 160.301C148.8 160.501 147.7 159.434 146.7 157.101C145.9 155.201 145.3 151.801 145.4 149.601Z" fill="white"/>
</svg>
